<svg width="34" height="34" viewBox="0 0 34 34" fill="none" xmlns="http://www.w3.org/2000/svg">
<path fill-rule="evenodd" clip-rule="evenodd" d="M11.3432 15.5858C12.1242 16.3668 12.1242 17.6332 11.3432 18.4142C10.5621 19.1953 9.29579 19.1953 8.51474 18.4142C7.73369 17.6332 7.73369 16.3668 8.51474 15.5858C8.88981 15.2107 9.39852 15 9.92895 15C10.4594 15 10.9681 15.2107 11.3432 15.5858Z" stroke="white" stroke-width="1.5" stroke-linecap="round" stroke-linejoin="round"/>
<path fill-rule="evenodd" clip-rule="evenodd" d="M18.4142 8.51471C19.1953 9.29576 19.1953 10.5621 18.4142 11.3431C17.6332 12.1242 16.3668 12.1242 15.5858 11.3431C14.8047 10.5621 14.8047 9.29576 15.5858 8.51471C16.3668 7.73366 17.6332 7.73366 18.4142 8.51471Z" stroke="white" stroke-width="1.5" stroke-linecap="round" stroke-linejoin="round"/>
<path fill-rule="evenodd" clip-rule="evenodd" d="M18.4142 22.6569C19.1953 23.4379 19.1953 24.7042 18.4142 25.4853C17.6332 26.2663 16.3668 26.2663 15.5858 25.4853C14.8047 24.7042 14.8047 23.4379 15.5858 22.6569C15.9609 22.2818 16.4696 22.0711 17 22.0711C17.5304 22.0711 18.0391 22.2818 18.4142 22.6569Z" stroke="white" stroke-width="1.5" stroke-linecap="round" stroke-linejoin="round"/>
<path fill-rule="evenodd" clip-rule="evenodd" d="M25.4853 15.5858C26.2664 16.3668 26.2664 17.6332 25.4853 18.4142C24.7043 19.1953 23.4379 19.1953 22.6569 18.4142C21.8758 17.6332 21.8758 16.3668 22.6569 15.5858C23.4379 14.8047 24.7043 14.8047 25.4853 15.5858Z" stroke="white" stroke-width="1.5" stroke-linecap="round" stroke-linejoin="round"/>
<path d="M10.8128 15.0555C10.5199 15.3483 10.5199 15.8232 10.8128 16.1161C11.1057 16.409 11.5806 16.409 11.8735 16.1161L10.8128 15.0555ZM16.1161 11.8735C16.409 11.5806 16.409 11.1057 16.1161 10.8128C15.8232 10.5199 15.3484 10.5199 15.0555 10.8128L16.1161 11.8735ZM11.8735 17.8839C11.5806 17.591 11.1057 17.591 10.8128 17.8839C10.5199 18.1768 10.5199 18.6517 10.8128 18.9445L11.8735 17.8839ZM15.0555 23.1872C15.3484 23.4801 15.8232 23.4801 16.1161 23.1872C16.409 22.8943 16.409 22.4194 16.1161 22.1265L15.0555 23.1872ZM18.9446 10.8128C18.6517 10.5199 18.1768 10.5199 17.8839 10.8128C17.591 11.1057 17.591 11.5806 17.8839 11.8735L18.9446 10.8128ZM22.1265 16.1161C22.4194 16.409 22.8943 16.409 23.1872 16.1161C23.4801 15.8232 23.4801 15.3483 23.1872 15.0555L22.1265 16.1161ZM17.8839 22.1265C17.591 22.4194 17.591 22.8943 17.8839 23.1872C18.1768 23.4801 18.6517 23.4801 18.9446 23.1872L17.8839 22.1265ZM23.1872 18.9445C23.4801 18.6517 23.4801 18.1768 23.1872 17.8839C22.8943 17.591 22.4194 17.591 22.1265 17.8839L23.1872 18.9445ZM11.8735 16.1161L16.1161 11.8735L15.0555 10.8128L10.8128 15.0555L11.8735 16.1161ZM10.8128 18.9445L15.0555 23.1872L16.1161 22.1265L11.8735 17.8839L10.8128 18.9445ZM17.8839 11.8735L22.1265 16.1161L23.1872 15.0555L18.9446 10.8128L17.8839 11.8735ZM18.9446 23.1872L23.1872 18.9445L22.1265 17.8839L17.8839 22.1265L18.9446 23.1872Z" fill="white"/>
</svg>
