<svg width="14" height="14" viewBox="0 0 14 14" fill="none" xmlns="http://www.w3.org/2000/svg">
<path fill-rule="evenodd" clip-rule="evenodd" d="M8.57036 3.5H5.4297C4.03784 3.50418 2.91283 4.63573 2.9167 6.02758V8.55575C2.91283 9.94761 4.03784 11.0792 5.4297 11.0833H8.57036C9.96222 11.0792 11.0872 9.94761 11.0834 8.55575V6.02758C11.0872 4.63573 9.96222 3.50418 8.57036 3.5Z" stroke="#BEC9EC" stroke-width="1.5" stroke-linecap="round" stroke-linejoin="round"/>
<path d="M4.20837 9.04166C4.20837 9.45587 4.54416 9.79166 4.95837 9.79166C5.37259 9.79166 5.70837 9.45587 5.70837 9.04166H4.20837ZM5.70837 6.70832C5.70837 6.29411 5.37259 5.95832 4.95837 5.95832C4.54416 5.95832 4.20837 6.29411 4.20837 6.70832H5.70837ZM6.25004 9.04166C6.25004 9.45587 6.58583 9.79166 7.00004 9.79166C7.41425 9.79166 7.75004 9.45587 7.75004 9.04166H6.25004ZM7.75004 5.54166C7.75004 5.12744 7.41425 4.79166 7.00004 4.79166C6.58583 4.79166 6.25004 5.12744 6.25004 5.54166H7.75004ZM8.29171 9.04166C8.29171 9.45587 8.62749 9.79166 9.04171 9.79166C9.45592 9.79166 9.79171 9.45587 9.79171 9.04166H8.29171ZM9.79171 6.70832C9.79171 6.29411 9.45592 5.95832 9.04171 5.95832C8.62749 5.95832 8.29171 6.29411 8.29171 6.70832H9.79171ZM5.70837 9.04166V6.70832H4.20837V9.04166H5.70837ZM7.75004 9.04166V5.54166H6.25004V9.04166H7.75004ZM9.79171 9.04166V6.70832H8.29171V9.04166H9.79171Z" fill="#BEC9EC"/>
</svg>
