<svg width="24" height="24" viewBox="0 0 24 24" fill="none" xmlns="http://www.w3.org/2000/svg">
<path fill-rule="evenodd" clip-rule="evenodd" d="M19 12C19 15.866 15.866 19 12 19C8.13401 19 5 15.866 5 12C5 8.13401 8.13401 5 12 5C13.8565 5 15.637 5.7375 16.9497 7.05025C18.2625 8.36301 19 10.1435 19 12Z" stroke="#BEC9EC" stroke-width="1.5" stroke-linecap="round" stroke-linejoin="round"/>
<path d="M12 14.821C11.5858 14.821 11.25 15.1568 11.25 15.571C11.25 15.9852 11.5858 16.321 12 16.321V14.821ZM10.5 11L11.0225 10.462C10.9935 10.4338 10.9622 10.408 10.929 10.3848L10.5 11ZM9.99997 10L10.7495 10.0259C10.7498 10.0172 10.75 10.0086 10.75 10H9.99997ZM12 9.179C12.4142 9.179 12.75 8.84321 12.75 8.429C12.75 8.01479 12.4142 7.679 12 7.679V9.179ZM11.9693 16.3214C12.3832 16.3383 12.7324 16.0165 12.7493 15.6027C12.7663 15.1888 12.4445 14.8396 12.0306 14.8226L11.9693 16.3214ZM10.7432 13.2874C10.7987 12.8769 10.5108 12.4992 10.1004 12.4437C9.68988 12.3883 9.31216 12.6761 9.25672 13.0866L10.7432 13.2874ZM12.75 15.571C12.75 15.1568 12.4142 14.821 12 14.821C11.5858 14.821 11.25 15.1568 11.25 15.571H12.75ZM11.25 17C11.25 17.4142 11.5858 17.75 12 17.75C12.4142 17.75 12.75 17.4142 12.75 17H11.25ZM11.9578 7.68019C11.5442 7.7035 11.2279 8.05765 11.2512 8.4712C11.2745 8.88476 11.6286 9.20112 12.0422 9.17781L11.9578 7.68019ZM13.5171 9.04604L12.9642 9.55281L12.9642 9.55281L13.5171 9.04604ZM13.2577 10.5039C13.1985 10.9139 13.4829 11.2942 13.8929 11.3533C14.3028 11.4125 14.6831 11.1281 14.7423 10.7181L13.2577 10.5039ZM11.25 8.429C11.25 8.84321 11.5858 9.179 12 9.179C12.4142 9.179 12.75 8.84321 12.75 8.429H11.25ZM12.75 7C12.75 6.58579 12.4142 6.25 12 6.25C11.5858 6.25 11.25 6.58579 11.25 7H12.75ZM12 16.321C12.4237 16.321 13.062 16.2249 13.6227 15.9039C14.2203 15.5618 14.75 14.9413 14.75 13.981H13.25C13.25 14.2927 13.1131 14.4672 12.8775 14.6021C12.6049 14.7581 12.2433 14.821 12 14.821V16.321ZM14.75 13.981C14.75 13.3929 14.5653 12.9133 14.2311 12.5272C13.9217 12.1699 13.5166 11.9325 13.1567 11.7465C12.3776 11.3441 11.6677 11.0886 11.0225 10.462L9.97741 11.538C10.8323 12.3684 11.8724 12.7714 12.4683 13.0792C12.7958 13.2484 12.9845 13.379 13.097 13.509C13.1846 13.6102 13.25 13.7371 13.25 13.981H14.75ZM10.929 10.3848C10.8122 10.3034 10.7446 10.1682 10.7495 10.0259L9.25042 9.97414C9.22796 10.6249 9.53686 11.2427 10.0709 11.6152L10.929 10.3848ZM10.75 10C10.75 9.73857 10.8069 9.59598 10.8555 9.51794C10.9039 9.44014 10.9745 9.3774 11.0813 9.32479C11.3268 9.20383 11.6682 9.179 12 9.179V7.679C11.6647 7.679 11.0061 7.68967 10.4184 7.97921C10.1086 8.13185 9.80425 8.36811 9.58188 8.72549C9.35965 9.08265 9.24997 9.51143 9.24997 10H10.75ZM12.0306 14.8226C11.6496 14.807 11.2928 14.6316 11.0478 14.3394L9.89841 15.3032C10.4147 15.9189 11.1665 16.2885 11.9693 16.3214L12.0306 14.8226ZM11.0478 14.3394C10.8027 14.0472 10.6922 13.6653 10.7432 13.2874L9.25672 13.0866C9.14917 13.8829 9.38213 14.6876 9.89841 15.3032L11.0478 14.3394ZM11.25 15.571V17H12.75V15.571H11.25ZM12.0422 9.17781C12.3902 9.1582 12.7286 9.29585 12.9642 9.55281L14.0699 8.53927C13.5304 7.9506 12.755 7.63525 11.9578 7.68019L12.0422 9.17781ZM12.9642 9.55281C13.1997 9.80978 13.3074 10.1589 13.2577 10.5039L14.7423 10.7181C14.8563 9.92774 14.6095 9.12794 14.0699 8.53927L12.9642 9.55281ZM12.75 8.429V7H11.25V8.429H12.75Z" fill="#BEC9EC"/>
</svg>
